<svg xmlns="http://www.w3.org/2000/svg" viewBox="200 0 624 544">
  <path fill="#e5e5e5" d="
M576.027710,486.081940 
	C560.272705,495.496429 544.707214,504.527130 529.440491,514.037537 
	C518.494568,520.856262 508.110962,520.800537 497.087769,514.179932 
	C463.388092,493.939667 429.534973,473.954681 395.719604,453.907379 
	C371.361481,439.466797 347.067383,424.913666 322.545593,410.755707 
	C311.587189,404.428711 306.645142,395.397125 306.664948,382.907166 
	C306.775696,313.091583 306.812012,243.275589 306.671600,173.460129 
	C306.645447,160.467804 312.085205,151.509521 323.258698,144.979004 
	C372.577179,116.154053 421.724548,87.036293 470.935760,58.027775 
	C480.262115,52.530182 489.564240,46.990417 498.937073,41.573128 
	C508.416016,36.094494 517.938965,36.204018 527.370605,41.762943 
	C574.437012,69.503456 621.493896,97.260201 668.564331,124.993935 
	C680.474487,132.011368 692.358215,139.077393 704.371704,145.914505 
	C714.668152,151.774460 719.298889,160.594162 719.293457,172.252243 
	C719.260559,242.567886 719.234070,312.883575 719.314758,383.199097 
	C719.328552,395.247711 714.695129,404.249390 704.136353,410.434387 
	C671.654724,429.461090 639.289429,448.686340 606.880798,467.837677 
	C596.699097,473.854401 586.523438,479.881226 576.027710,486.081940 
M468.191254,200.754562 
	C456.607727,207.673462 445.080963,214.690079 433.414215,221.465698 
	C428.383423,224.387436 426.267059,228.539764 426.276550,234.201462 
	C426.325928,263.696686 426.321899,293.192047 426.286591,322.687286 
	C426.280701,327.624695 428.195862,331.235748 432.507568,333.809326 
	C457.680664,348.834564 482.821259,363.914551 507.920380,379.062988 
	C511.319885,381.114746 514.459473,381.156677 517.768921,379.175201 
	C543.063171,364.030640 568.348389,348.870972 593.663574,333.761658 
	C598.000061,331.173401 599.686218,327.319824 599.685486,322.482239 
	C599.680969,292.820282 599.677185,263.158325 599.685242,233.496368 
	C599.686707,228.001907 597.390503,224.056427 592.468506,221.353592 
	C586.193726,217.907867 580.126099,214.084702 573.971008,210.421204 
	C555.505859,199.430664 537.012146,188.487717 518.601074,177.407288 
	C514.746094,175.087219 511.324524,174.988708 507.440155,177.344925 
	C494.623596,185.119308 481.695984,192.710663 468.191254,200.754562 
M367.196472,350.660492 
	C374.086365,346.603119 380.946136,342.493225 387.879761,338.511993 
	C391.016510,336.710907 392.751770,334.481598 392.739380,330.565002 
	C392.628906,295.572540 392.644135,260.579468 392.735535,225.586899 
	C392.744019,222.344620 391.590729,220.364960 388.841278,218.743027 
	C372.056671,208.841537 355.348022,198.811386 338.589203,188.865952 
	C337.112946,187.989883 335.706909,186.442429 333.763458,187.463593 
	C333.763458,248.057251 333.763458,308.530762 333.763458,369.925995 
	C345.780457,364.101318 355.777496,356.856262 367.196472,350.660492 
M658.848877,350.605072 
	C669.915466,356.780945 680.335815,364.132568 692.563477,370.060059 
	C692.563477,308.309845 692.563477,247.701080 692.563477,186.743027 
	C691.403564,186.996933 690.699585,186.982605 690.185486,187.287964 
	C672.302063,197.911621 654.435181,208.563248 636.569763,219.217285 
	C633.996094,220.752075 633.304565,223.073578 633.309998,225.993942 
	C633.374695,260.788055 633.399597,295.582428 633.282898,330.376251 
	C633.270752,334.013184 634.527710,336.266632 637.604126,338.022125 
	C644.541382,341.980743 651.366943,346.135071 658.848877,350.605072 
M616.047485,360.603485 
	C587.494141,377.733459 558.974426,394.919983 530.340393,411.913940 
	C527.159973,413.801453 526.056702,415.919006 526.079224,419.485596 
	C526.204407,439.305908 526.110474,459.127502 526.155212,478.948547 
	C526.159058,480.653839 525.529907,482.677765 528.105591,484.263794 
	C578.450012,454.426605 629.026733,424.451813 679.456299,394.564209 
	C678.689270,392.314209 677.387451,391.834473 676.261475,391.165344 
	C658.656677,380.704224 641.008972,370.313995 623.486023,359.717651 
	C620.765808,358.072723 618.845825,358.808167 616.047485,360.603485 
M351.197327,397.384796 
	C400.369476,426.465668 449.541595,455.546570 499.203888,484.917358 
	C499.546661,482.881470 499.848145,481.919220 499.850250,480.956360 
	C499.895966,459.974976 499.886719,438.993500 499.954163,418.012238 
	C499.962738,415.342407 498.755829,413.791687 496.534271,412.465942 
	C467.230621,394.978180 437.954865,377.443542 408.715240,359.848938 
	C406.429657,358.473602 404.722839,358.481293 402.374847,359.898407 
	C384.991058,370.390320 367.499298,380.703217 350.062195,391.107086 
	C348.840759,391.835907 347.287628,392.387177 347.149231,394.165253 
	C347.944366,395.614777 349.318817,396.264801 351.197327,397.384796 
M499.923248,125.496170 
	C499.923248,107.966545 499.923248,90.436928 499.923248,72.907303 
	C499.363159,72.636887 498.803040,72.366470 498.242950,72.096054 
	C447.552765,102.019913 396.862579,131.943771 346.282867,161.802414 
	C347.530548,164.663788 349.201477,165.186218 350.603882,166.013916 
	C366.947266,175.659561 383.391876,185.139053 399.583649,195.032486 
	C403.586670,197.478394 406.591766,197.442642 410.472198,195.095505 
	C436.111481,179.587189 461.523987,163.653183 487.729004,149.156937 
	C497.698914,143.641724 501.922150,137.330002 499.923248,125.496170 
M604.305969,117.241753 
	C578.858276,102.253258 553.410583,87.264763 528.093323,72.353096 
	C525.603638,75.222740 526.143921,77.660141 526.138184,79.912399 
	C526.090759,98.574669 526.225525,117.238174 526.042786,135.898727 
	C526.003845,139.881836 527.234009,142.230301 530.718567,144.294815 
	C558.949646,161.020660 587.121338,177.849030 615.158264,194.897552 
	C619.499634,197.537476 622.796692,197.334656 626.976257,194.811295 
	C643.229980,184.998184 659.660217,175.477692 676.003418,165.812103 
	C677.351990,165.014557 679.228027,164.599899 679.270569,161.534622 
	C654.743713,147.041672 629.840271,132.326157 604.305969,117.241753 
z"/>
</svg>
